<svg width="21" height="21" viewBox="0 0 21 21" fill="none" xmlns="http://www.w3.org/2000/svg">
<path d="M1.21875 0.375C0.994974 0.375 0.780363 0.463895 0.622129 0.622129C0.463895 0.780363 0.375 0.994974 0.375 1.21875C0.375 1.44253 0.463895 1.65714 0.622129 1.81537C0.780363 1.97361 0.994974 2.0625 1.21875 2.0625H1.63388C1.81709 2.06282 1.99522 2.12276 2.14135 2.23327C2.28748 2.34379 2.39367 2.49886 2.44388 2.67506L5.12025 12.0407C5.27162 12.5692 5.59096 13.0341 6.02998 13.365C6.46901 13.696 7.00384 13.875 7.55363 13.875H15.2638C15.7698 13.8751 16.2642 13.7235 16.6832 13.4399C17.1022 13.1562 17.4266 12.7535 17.6145 12.2837L20.1019 6.06356C20.2041 5.80761 20.2421 5.53051 20.2126 5.25648C20.183 4.98245 20.0868 4.71984 19.9323 4.49159C19.7778 4.26334 19.5697 4.07641 19.3263 3.94713C19.0829 3.81786 18.8115 3.75017 18.5359 3.75H4.506L4.06556 2.211C3.91457 1.68243 3.59562 1.21738 3.15691 0.886138C2.7182 0.554899 2.18359 0.37548 1.63388 0.375H1.21875ZM6.74363 11.5749L4.98863 5.4375H18.5342L16.0468 11.6576C15.9841 11.814 15.8761 11.9481 15.7365 12.0425C15.5969 12.137 15.4323 12.1875 15.2638 12.1875H7.55363C7.37041 12.1872 7.19228 12.1272 7.04615 12.0167C6.90002 11.9062 6.79383 11.7511 6.74363 11.5749Z" fill="black"/>
<path d="M7.96875 20.625C8.30116 20.625 8.63031 20.5595 8.93742 20.4323C9.24452 20.3051 9.52357 20.1187 9.75861 19.8836C9.99366 19.6486 10.1801 19.3695 10.3073 19.0624C10.4345 18.7553 10.5 18.4262 10.5 18.0938C10.5 17.7613 10.4345 17.4322 10.3073 17.1251C10.1801 16.818 9.99366 16.5389 9.75861 16.3039C9.52357 16.0688 9.24452 15.8824 8.93742 15.7552C8.63031 15.628 8.30116 15.5625 7.96875 15.5625C7.29742 15.5625 6.65359 15.8292 6.17889 16.3039C5.70418 16.7786 5.4375 17.4224 5.4375 18.0938C5.4375 18.7651 5.70418 19.4089 6.17889 19.8836C6.65359 20.3583 7.29742 20.625 7.96875 20.625ZM7.96875 18.9375C7.74497 18.9375 7.53036 18.8486 7.37213 18.6904C7.21389 18.5321 7.125 18.3175 7.125 18.0938C7.125 17.87 7.21389 17.6554 7.37213 17.4971C7.53036 17.3389 7.74497 17.25 7.96875 17.25C8.19253 17.25 8.40714 17.3389 8.56537 17.4971C8.7236 17.6554 8.8125 17.87 8.8125 18.0938C8.8125 18.3175 8.7236 18.5321 8.56537 18.6904C8.40714 18.8486 8.19253 18.9375 7.96875 18.9375Z" fill="black"/>
<path d="M14.7188 20.625C15.0512 20.625 15.3803 20.5595 15.6874 20.4323C15.9945 20.3051 16.2736 20.1187 16.5086 19.8836C16.7437 19.6486 16.9301 19.3695 17.0573 19.0624C17.1845 18.7553 17.25 18.4262 17.25 18.0938C17.25 17.7613 17.1845 17.4322 17.0573 17.1251C16.9301 16.818 16.7437 16.5389 16.5086 16.3039C16.2736 16.0688 15.9945 15.8824 15.6874 15.7552C15.3803 15.628 15.0512 15.5625 14.7188 15.5625C14.0474 15.5625 13.4036 15.8292 12.9289 16.3039C12.4542 16.7786 12.1875 17.4224 12.1875 18.0938C12.1875 18.7651 12.4542 19.4089 12.9289 19.8836C13.4036 20.3583 14.0474 20.625 14.7188 20.625ZM14.7188 18.9375C14.495 18.9375 14.2804 18.8486 14.1221 18.6904C13.9639 18.5321 13.875 18.3175 13.875 18.0938C13.875 17.87 13.9639 17.6554 14.1221 17.4971C14.2804 17.3389 14.495 17.25 14.7188 17.25C14.9425 17.25 15.1571 17.3389 15.3154 17.4971C15.4736 17.6554 15.5625 17.87 15.5625 18.0938C15.5625 18.3175 15.4736 18.5321 15.3154 18.6904C15.1571 18.8486 14.9425 18.9375 14.7188 18.9375Z" fill="black"/>
</svg>
