<svg width="22" height="21" viewBox="0 0 22 21" fill="none" xmlns="http://www.w3.org/2000/svg">
<path d="M21.8493 19.4494L14.7629 12.6636C15.8626 11.3022 16.4574 9.63774 16.4574 7.88705C16.4574 5.79145 15.6033 3.8265 14.0589 2.34495C12.5144 0.863402 10.457 0.0481567 8.27128 0.0481567C6.08558 0.0481567 4.02813 0.866015 2.48368 2.34495C0.936502 3.82389 0.085144 5.79145 0.085144 7.88705C0.085144 9.98004 0.939231 11.9502 2.48368 13.4291C4.02813 14.9107 6.08285 15.7259 8.27128 15.7259C10.0995 15.7259 11.835 15.1563 13.2566 14.1059L20.3431 20.8892C20.3639 20.9091 20.3885 20.9249 20.4157 20.9356C20.4429 20.9464 20.472 20.952 20.5014 20.952C20.5308 20.952 20.5599 20.9464 20.587 20.9356C20.6142 20.9249 20.6388 20.9091 20.6596 20.8892L21.8493 19.7525C21.8701 19.7326 21.8866 19.709 21.8979 19.683C21.9091 19.657 21.9149 19.6291 21.9149 19.601C21.9149 19.5728 21.9091 19.545 21.8979 19.5189C21.8866 19.4929 21.8701 19.4693 21.8493 19.4494ZM12.5936 12.026C11.4366 13.1313 9.90305 13.7401 8.27128 13.7401C6.63951 13.7401 5.10597 13.1313 3.949 12.026C2.79475 10.9181 2.15896 9.4496 2.15896 7.88705C2.15896 6.3245 2.79475 4.8534 3.949 3.74812C5.10597 2.64283 6.63951 2.03401 8.27128 2.03401C9.90305 2.03401 11.4393 2.64022 12.5936 3.74812C13.7478 4.85601 14.3836 6.3245 14.3836 7.88705C14.3836 9.4496 13.7478 10.9207 12.5936 12.026Z" fill="black"/>
</svg>
