<svg width="23" height="23" viewBox="0 0 23 23" fill="none" xmlns="http://www.w3.org/2000/svg">
<path d="M18.9117 13.2408C18.6056 12.9389 17.9256 12.7793 16.8906 12.765C16.0776 12.7659 15.2657 12.8254 14.4612 12.9432C14.0645 12.7147 13.6548 12.4645 13.3342 12.1641C12.4703 11.3577 11.7487 10.2378 11.3002 9.0059C11.3289 8.8909 11.3548 8.79028 11.3778 8.68678C11.3778 8.68678 11.8651 5.92247 11.7357 4.98809C11.7262 4.89755 11.705 4.80864 11.6725 4.72359L11.6308 4.61434C11.4986 4.30959 11.2384 3.98615 10.8316 4.0034L10.5857 3.99622C10.1315 3.99622 9.76205 4.22765 9.66574 4.57553C9.37105 5.66372 9.6758 7.29097 10.2264 9.39834L10.0855 9.7419C9.69018 10.705 9.19568 11.6753 8.75868 12.5307L8.70118 12.6413C8.24118 13.5412 7.8243 14.3045 7.44624 14.9514L7.05668 15.1584C7.02793 15.1728 6.35949 15.5278 6.2028 15.6227C4.87168 16.4177 3.99049 17.319 3.84387 18.0348C3.79787 18.2634 3.83237 18.5552 4.06812 18.6903L4.44618 18.8801C4.60519 18.9609 4.78098 19.0033 4.95937 19.0037C5.90668 19.0037 7.0078 17.8235 8.52437 15.1771C10.3169 14.5976 12.1526 14.1611 14.0142 13.8718C15.3453 14.6208 16.9826 15.1412 18.0147 15.1412C18.1987 15.1412 18.3569 15.1239 18.4848 15.0894C18.6741 15.0433 18.8402 14.9299 18.952 14.7703C19.1518 14.4684 19.1935 14.053 19.1389 13.6275C19.1045 13.4779 19.0259 13.3421 18.9132 13.2379L18.9117 13.2408ZM4.7538 18.285C4.9263 17.812 5.61055 16.8777 6.62255 16.0482C6.6858 15.9965 6.84249 15.8498 6.98624 15.7133C5.92824 17.4009 5.21955 18.0737 4.7538 18.2835V18.285ZM10.7467 4.48497C11.0515 4.48497 11.2254 5.25259 11.2398 5.97278C11.2542 6.69297 11.086 7.19897 10.8776 7.57272C10.7051 7.01928 10.6202 6.14672 10.6202 5.57603C10.6202 5.57603 10.6073 4.48497 10.7467 4.48497ZM8.95849 14.3189C9.17124 13.9394 9.39118 13.5383 9.61687 13.1128C10.1674 12.0721 10.5139 11.2585 10.7726 10.59C11.2585 11.4904 11.9055 12.2938 12.6816 12.9605C12.7751 13.0395 12.8757 13.12 12.9792 13.1991C11.4468 13.5024 10.1229 13.8704 8.95705 14.3189H8.95849ZM18.6185 14.2327C18.5251 14.2916 18.2577 14.3247 18.0866 14.3247C17.5317 14.3247 16.8446 14.0717 15.8829 13.6577C16.2524 13.6303 16.5916 13.616 16.8964 13.616C17.4527 13.616 17.618 13.6131 18.1614 13.7525C18.7047 13.892 18.7119 14.1737 18.6185 14.2312V14.2327Z" fill="black"/>
<path d="M20.6152 5.14481C20.1164 4.46488 19.4206 3.6685 18.6573 2.90519C17.894 2.14187 17.0976 1.44613 16.4177 0.947312C15.2591 0.0977499 14.697 0 14.375 0H3.23438C2.24394 0 1.4375 0.806437 1.4375 1.79688V21.2031C1.4375 22.1936 2.24394 23 3.23438 23H19.7656C20.7561 23 21.5625 22.1936 21.5625 21.2031V7.1875C21.5625 6.8655 21.4648 6.30344 20.6152 5.14481ZM17.6396 3.92294C18.3296 4.61294 18.8701 5.23394 19.2697 5.75H15.8111V2.29281C16.3271 2.69244 16.9496 3.23294 17.6381 3.92294H17.6396ZM20.125 21.2031C20.125 21.3986 19.9611 21.5625 19.7656 21.5625H3.23438C3.13941 21.5614 3.04865 21.5232 2.9815 21.456C2.91434 21.3888 2.87612 21.2981 2.875 21.2031V1.79688C2.875 1.60281 3.04031 1.4375 3.23438 1.4375H14.375V6.46875C14.375 6.65937 14.4507 6.84219 14.5855 6.97698C14.7203 7.11177 14.9031 7.1875 15.0938 7.1875H20.125V21.2031Z" fill="black"/>
</svg>
