<svg width="21" height="21" fill="none" xmlns="http://www.w3.org/2000/svg"><path d="M1.219.375a.844.844 0 0 0 0 1.688h.415a.844.844 0 0 1 .81.612l2.676 9.366a2.531 2.531 0 0 0 2.434 1.834h7.71a2.531 2.531 0 0 0 2.35-1.591l2.488-6.22a1.689 1.689 0 0 0-1.566-2.314H4.506l-.44-1.539A2.531 2.531 0 0 0 1.634.375h-.415zm5.525 11.2L4.989 5.438h13.545l-2.487 6.22a.843.843 0 0 1-.783.53h-7.71a.844.844 0 0 1-.81-.613zM7.969 20.625a2.531 2.531 0 1 0 0-5.063 2.531 2.531 0 0 0 0 5.063zm0-1.688a.844.844 0 1 1 0-1.687.844.844 0 0 1 0 1.688zM14.719 20.625a2.531 2.531 0 1 0 0-5.062 2.531 2.531 0 0 0 0 5.062zm0-1.688a.844.844 0 1 1 0-1.688.844.844 0 0 1 0 1.689z" fill="#000"/></svg>