<svg viewBox="0 0 500 500" xml:space="preserve" xmlns="http://www.w3.org/2000/svg"><path d="m393.502 164.186-60.045 88.796a12.588 12.588 0 0 0 1.682 16.106l64.761 62.564s-71.047-12.549-117.859-67.932 111.461-99.534 111.461-99.534zM161.25 125.801s-46.284 7.064-62.243 0-.478 26.718 14.763 31.851l47.48-31.851zM150.505 366.63s-31.992-4.883-43.024 0-.33-18.468 10.205-22.016l32.819 22.016z" fill="#2666CE"/><path d="M293.16 258.022c15.532-19.366 63.04-76.076 100.343-93.837 4.569-2.175 5.752-8.146 2.401-11.938-30.275-34.257-75.589-56.025-126.24-56.025-79.459 0-180.274 58.657-204.839 126.856-6.18-8.849-16.825-19.296-33.972-23.003-31.82-6.88 8.6 34.4 0 65.36s-22.36 57.62-.86 51.6c11.403-3.193 25.709-16.063 34.963-32.451 24.786 68.048 125.386 126.503 204.708 126.503 55.761 0 105.055-26.381 134.934-66.766 3.454-4.669.948-11.308-4.698-12.672-47.735-11.528-90.352-47.174-105.776-61.261a9.06 9.06 0 0 1-.964-12.366z" fill="#4384EC"/><path d="M64.807 223.079s-3.334 14.883-3.127 30.577c0 0-8.289-37.634-14.918-47.433 0 0 12.263 6.635 18.045 16.856z" fill="#2666CE"/><circle cx="260.417" cy="179.094" fill="#FFF" r="10.527"/><g><path d="M476.999 258.673a9.453 9.453 0 0 1 0-8.657l4.597-8.925c.948-1.84-1.003-3.847-2.859-2.929-4.521 2.234-10.062 5.918-14.681 9.207-6.582-9.285-19.898-20.082-35.265-20.082-21.9 0-39.653 21.089-39.653 30.157s17.753 30.157 39.653 30.157c17.856 0 32.951-14.579 37.919-24.421 3.987 2.746 8.345 5.528 12.028 7.348 1.856.917 3.807-1.089 2.859-2.929l-4.598-8.926z" fill="#FECC5D"/><circle cx="413.607" cy="249.498" fill="#FFF" r="3.016"/><path d="M391.49 264.67c5.515 9.97 20.132 22.931 37.302 22.931 17.67 0 32.63-14.274 37.754-24.11.45-5.327-.661-8.367-.661-8.367-30.02 47.298-74.359 9.577-74.395 9.546z" fill="#F1BB4C"/></g></svg>