<svg width="22" height="21" fill="none" xmlns="http://www.w3.org/2000/svg"><path d="m21.85 19.45-7.087-6.786a7.558 7.558 0 0 0 1.694-4.777c0-2.096-.854-4.06-2.398-5.542C12.514.863 10.457.048 8.27.048c-2.185 0-4.243.818-5.787 2.297C.937 3.824.085 5.791.085 7.887c0 2.093.854 4.063 2.399 5.542 1.544 1.482 3.599 2.297 5.787 2.297 1.829 0 3.564-.57 4.986-1.62l7.086 6.783a.223.223 0 0 0 .158.063.231.231 0 0 0 .159-.063l1.19-1.136a.215.215 0 0 0 .065-.152.208.208 0 0 0-.066-.152zm-9.256-7.424A6.219 6.219 0 0 1 8.27 13.74a6.219 6.219 0 0 1-4.322-1.714c-1.154-1.108-1.79-2.576-1.79-4.139 0-1.563.636-3.034 1.79-4.139a6.219 6.219 0 0 1 4.322-1.714c1.632 0 3.168.606 4.323 1.714 1.154 1.108 1.79 2.576 1.79 4.14 0 1.562-.636 3.033-1.79 4.138z" fill="#000"/></svg>