<svg width="23" height="23" fill="none" xmlns="http://www.w3.org/2000/svg"><path d="M18.912 13.24c-.306-.301-.986-.46-2.021-.475-.813 0-1.625.06-2.43.178-.396-.228-.806-.479-1.127-.779-.864-.806-1.585-1.926-2.034-3.158.029-.115.055-.216.078-.32 0 0 .487-2.764.358-3.698-.01-.09-.031-.18-.064-.264l-.041-.11c-.132-.304-.393-.628-.8-.61l-.245-.008c-.454 0-.824.232-.92.58-.295 1.088.01 2.715.56 4.822l-.14.344c-.396.963-.89 1.933-1.327 2.789l-.058.11c-.46.9-.877 1.664-1.255 2.31l-.39.207c-.028.015-.697.37-.853.465-1.331.795-2.213 1.696-2.36 2.412-.045.228-.01.52.225.655l.378.19c.16.08.335.123.513.124.948 0 2.049-1.18 3.565-3.827a35.637 35.637 0 0 1 5.49-1.305c1.331.749 2.969 1.27 4 1.27.185 0 .343-.018.47-.053a.802.802 0 0 0 .468-.319c.2-.302.241-.717.187-1.143a.764.764 0 0 0-.226-.39l-.001.004zM4.754 18.286c.172-.473.857-1.407 1.869-2.237.063-.051.22-.198.363-.335-1.058 1.688-1.766 2.36-2.232 2.57v.002zm5.993-13.8c.305 0 .478.768.493 1.488.014.72-.154 1.226-.362 1.6-.173-.554-.258-1.426-.258-1.997 0 0-.013-1.091.127-1.091zm-1.789 9.834c.213-.38.433-.78.659-1.206.55-1.04.897-1.854 1.156-2.523a8.357 8.357 0 0 0 1.909 2.37c.093.08.194.16.297.24-1.532.302-2.856.67-4.022 1.119h.001zm9.66-.086c-.093.059-.36.092-.531.092-.555 0-1.242-.253-2.204-.667.37-.028.709-.042 1.013-.042.557 0 .722-.003 1.265.136.544.14.55.422.457.48z" fill="#000"/><path d="M20.615 5.145c-.499-.68-1.194-1.476-1.958-2.24-.763-.763-1.56-1.459-2.24-1.958C15.26.097 14.698 0 14.376 0H3.235a1.8 1.8 0 0 0-1.797 1.797v19.406A1.8 1.8 0 0 0 3.234 23h16.532a1.8 1.8 0 0 0 1.797-1.797V7.188c0-.322-.098-.885-.948-2.043zM17.64 3.923c.69.69 1.23 1.31 1.63 1.827H15.81V2.293c.516.4 1.139.94 1.827 1.63h.002zm2.485 17.28c0 .196-.164.36-.36.36H3.236a.363.363 0 0 1-.36-.36V1.797c0-.194.165-.36.36-.36h11.14V6.47a.719.719 0 0 0 .719.718h5.031v14.016z" fill="#000"/></svg>